<svg version="1.1" id="Layer_1" xmlns="http://www.w3.org/2000/svg" xmlns:xlink="http://www.w3.org/1999/xlink" x="0px" y="0px"
	 width="100%" viewBox="0 0 1298 522" enable-background="new 0 0 1298 522" xml:space="preserve">
<path fill="#FEFEFE" opacity="1.000000" stroke="none" 
	d="
M825.000000,523.000000 
	C550.000000,523.000000 275.500031,523.000000 1.000037,523.000000 
	C1.000025,349.000031 1.000025,175.000061 1.000012,1.000060 
	C433.666626,1.000040 866.333252,1.000040 1299.000000,1.000020 
	C1299.000000,174.999939 1299.000000,348.999878 1299.000000,522.999878 
	C1141.166626,523.000000 983.333313,523.000000 825.000000,523.000000 
M328.768921,373.731689 
	C330.648438,376.270447 332.463287,378.860382 334.421234,381.337158 
	C338.253052,386.184235 344.739594,386.232513 348.539246,381.311554 
	C352.292145,376.451172 355.862579,371.446136 359.412140,366.433075 
	C375.233826,344.087830 391.113007,321.781647 406.669464,299.252838 
	C408.183441,297.060272 408.515900,293.198334 407.805267,290.536133 
	C406.888397,287.101318 403.950867,285.029449 399.786224,285.125946 
	C391.794067,285.311096 383.791809,285.034698 375.798004,285.182617 
	C372.156250,285.249969 370.684845,283.899536 370.759338,280.222565 
	C370.897583,273.395203 370.694061,266.561798 370.740784,259.731628 
	C370.922302,233.186981 369.316711,206.590195 377.599609,180.615372 
	C383.162720,163.169708 390.314026,146.666687 401.286194,132.075134 
	C413.458038,115.888130 427.944275,101.989204 445.224518,91.195900 
	C463.123138,80.016365 482.160126,71.470398 502.765137,66.676674 
	C511.228027,64.707794 519.774902,63.099892 528.283569,61.327785 
	C526.696838,59.912968 525.053589,59.239124 523.403564,59.221897 
	C513.296326,59.116352 503.171417,58.790653 493.083130,59.235798 
	C476.061829,59.986870 459.494202,63.395401 443.459534,69.226494 
	C406.185699,82.781357 374.345123,104.416542 349.670685,135.439804 
	C326.193726,164.957397 312.581207,198.661407 312.348145,236.982880 
	C312.262024,251.143509 312.208405,265.306915 312.411163,279.465210 
	C312.473907,283.846222 310.962433,285.381683 306.603638,285.201874 
	C299.951294,284.927429 293.278564,285.153992 286.614471,285.156647 
	C275.202850,285.161194 272.210358,290.304108 277.865875,300.227051 
	C278.358398,301.091248 278.942596,301.904755 279.506775,302.726318 
	C286.091034,312.314423 292.638306,321.928314 299.276825,331.478760 
	C308.943176,345.385132 318.676086,359.245270 328.768921,373.731689 
M960.955994,375.525970 
	C972.404358,354.350983 977.438904,331.417419 978.594055,307.654449 
	C979.345642,292.193665 978.947876,276.669861 978.799927,261.176819 
	C978.754150,256.374054 980.576660,254.630539 985.289062,254.753983 
	C993.113770,254.959000 1000.952148,254.888992 1008.778809,254.694199 
	C1015.151062,254.535599 1018.279480,249.317978 1015.514465,243.604675 
	C1014.287964,241.070541 1012.790039,238.640305 1011.188171,236.319702 
	C1000.146362,220.323807 989.039429,204.372940 977.963928,188.400253 
	C971.813293,179.529922 965.711243,170.625793 959.534241,161.773880 
	C954.791870,154.977951 948.981262,154.771576 943.672852,161.263535 
	C941.152100,164.346313 938.815491,167.586517 936.506348,170.834290 
	C923.797363,188.709854 911.107361,206.598923 898.445374,224.507782 
	C894.514343,230.067566 890.324341,235.489868 886.906250,241.355774 
	C882.023010,249.735886 885.667786,255.764771 895.204224,255.795456 
	C901.868652,255.816910 908.545044,256.005707 915.193909,255.674103 
	C920.083923,255.430222 921.542664,257.324677 921.427063,262.066650 
	C920.891418,284.030731 921.174683,306.028900 920.077698,327.960449 
	C919.313599,343.236725 915.854614,358.254791 910.002930,372.485596 
	C899.041321,399.143280 881.457703,420.329071 858.005005,437.292633 
	C831.086731,456.762878 801.268005,468.156433 768.777344,473.433350 
	C766.983093,473.724762 765.286072,474.614899 763.543823,475.226379 
	C764.273743,476.412903 764.829529,476.687317 765.408752,476.751923 
	C782.865662,478.697449 800.373291,478.816864 817.564453,475.235626 
	C851.006653,468.268951 881.708740,455.274506 909.309387,434.492676 
	C930.614014,418.451385 947.231812,398.884918 960.955994,375.525970 
M538.251282,236.498795 
	C538.236450,240.997101 538.037659,245.504623 538.262085,249.990967 
	C538.459900,253.946320 536.854614,255.231827 532.994324,255.205185 
	C518.167297,255.102829 503.336761,255.122787 488.511688,255.358032 
	C484.211884,255.426270 482.624481,254.076477 482.687408,249.642944 
	C482.876465,236.317673 482.626343,222.986771 482.685974,209.658676 
	C482.703064,205.839050 481.165771,204.213654 477.324463,204.279404 
	C469.995880,204.404831 462.663452,204.284073 455.332825,204.319489 
	C449.485718,204.347748 448.413849,205.423264 448.393341,211.375916 
	C448.347443,224.704514 448.345947,238.033279 448.343201,251.361984 
	C448.337708,278.019318 448.426208,304.677155 448.268311,331.333527 
	C448.240021,336.113373 449.855194,337.886292 454.662231,337.712311 
	C462.315582,337.435333 469.988068,337.605072 477.650879,337.705444 
	C481.399414,337.754547 482.937439,336.354431 482.877014,332.365692 
	C482.667603,318.540253 482.772919,304.709961 482.776886,290.881500 
	C482.778717,284.467468 483.484314,283.720612 490.035950,283.889374 
	C494.682831,284.009033 499.320801,284.579712 503.966217,284.630402 
	C513.628113,284.735779 523.297974,284.814972 532.953125,284.524933 
	C537.204834,284.397217 538.317078,285.934845 538.260803,289.985596 
	C538.073303,303.477783 538.213196,316.974823 538.260620,330.469849 
	C538.282837,336.795685 538.933167,337.488464 545.461548,337.595734 
	C552.290833,337.707977 559.123169,337.667969 565.954041,337.649902 
	C572.334595,337.633026 572.715698,337.254486 572.715271,330.795044 
	C572.713562,303.804443 572.771301,276.813416 572.640503,249.823380 
	C572.575195,236.350983 572.021484,222.880859 571.965637,209.408569 
	C571.948425,205.254684 570.002563,204.276901 566.440552,204.314957 
	C559.110657,204.393280 551.778870,204.370651 544.448608,204.304306 
	C540.193237,204.265808 538.037537,205.806122 538.188171,210.510788 
	C538.454651,218.832565 538.258728,227.169128 538.251282,236.498795 
M778.177185,249.677383 
	C775.121887,253.392059 771.521301,256.784607 769.104126,260.876251 
	C757.681702,280.210968 761.064026,305.527374 776.631226,321.788574 
	C789.456482,335.185608 805.278076,339.686798 823.305481,338.655212 
	C844.222595,337.458313 869.208435,321.321259 872.525940,297.261169 
	C875.116028,278.476562 871.513306,261.920746 857.421448,248.509277 
	C848.534119,240.051041 837.841492,235.602158 825.616455,234.729935 
	C808.094421,233.479767 791.764954,236.048416 778.177185,249.677383 
M627.207336,236.181839 
	C620.045227,236.179810 612.882019,236.253891 605.721558,236.144760 
	C601.943909,236.087173 600.278137,237.650314 600.282776,241.493958 
	C600.319641,271.974304 600.316467,302.454926 600.199585,332.934967 
	C600.185852,336.510773 601.772156,337.689117 604.981628,337.670837 
	C611.310730,337.634827 617.640076,337.629974 623.969299,337.626129 
	C632.695068,337.620819 632.695740,337.626404 633.557190,329.151367 
	C633.590820,328.820618 633.601562,328.485992 633.598755,328.153381 
	C633.353516,299.027527 633.071167,269.901917 632.903931,240.775620 
	C632.883972,237.294312 631.513550,235.847321 627.207336,236.181839 
M659.592529,207.464584 
	C659.484924,208.285889 659.283508,209.107178 659.283325,209.928482 
	C659.275635,241.743378 659.266846,273.558289 659.316895,305.373138 
	C659.323914,309.831909 659.684509,314.289062 659.785034,318.749115 
	C659.889099,323.366882 660.003601,327.990814 659.877991,332.605621 
	C659.751892,337.239929 662.281616,337.894562 666.215454,337.868927 
	C687.035767,337.733307 707.857422,337.812958 728.678650,337.818970 
	C737.173706,337.821442 745.672546,337.956787 754.160522,337.713135 
	C755.737183,337.667877 758.538269,336.206451 758.619812,335.220490 
	C759.192261,328.296844 759.246033,321.327332 759.372742,314.370819 
	C759.463257,309.397675 756.739685,308.029785 752.048218,308.088837 
	C735.790588,308.293671 719.528687,308.153564 703.268433,308.164154 
	C695.148315,308.169464 695.155029,308.189026 695.679199,300.366577 
	C695.745850,299.371338 695.701843,298.368378 695.702087,297.368988 
	C695.708374,269.551758 695.716736,241.734543 695.711182,213.917313 
	C695.710876,212.256165 695.760681,210.568893 695.500000,208.939728 
	C695.054077,206.151581 694.104736,204.028992 690.487488,204.017593 
	C682.191223,203.991470 673.892944,203.383636 665.603210,203.512573 
	C663.686829,203.542374 661.801758,205.580795 659.592529,207.464584 
M598.189026,203.974976 
	C598.303589,208.225159 597.546387,212.501846 601.006958,216.179260 
	C607.541809,223.123611 616.290039,225.520325 625.478210,222.366272 
	C633.229736,219.705383 637.987549,210.840958 635.982666,203.270950 
	C633.437256,193.660599 626.327759,189.748917 617.129944,189.342422 
	C607.860779,188.932755 601.047058,194.098831 598.189026,203.974976 
z"/>
<path fill="#7AC2AE" opacity="1.000000" stroke="none" 
	d="
M328.574768,373.428406 
	C318.676086,359.245270 308.943176,345.385132 299.276825,331.478760 
	C292.638306,321.928314 286.091034,312.314423 279.506775,302.726318 
	C278.942596,301.904755 278.358398,301.091248 277.865875,300.227051 
	C272.210358,290.304108 275.202850,285.161194 286.614471,285.156647 
	C293.278564,285.153992 299.951294,284.927429 306.603638,285.201874 
	C310.962433,285.381683 312.473907,283.846222 312.411163,279.465210 
	C312.208405,265.306915 312.262024,251.143509 312.348145,236.982880 
	C312.581207,198.661407 326.193726,164.957397 349.670685,135.439804 
	C374.345123,104.416542 406.185699,82.781357 443.459534,69.226494 
	C459.494202,63.395401 476.061829,59.986870 493.083130,59.235798 
	C503.171417,58.790653 513.296326,59.116352 523.403564,59.221897 
	C525.053589,59.239124 526.696838,59.912968 528.283569,61.327785 
	C519.774902,63.099892 511.228027,64.707794 502.765137,66.676674 
	C482.160126,71.470398 463.123138,80.016365 445.224518,91.195900 
	C427.944275,101.989204 413.458038,115.888130 401.286194,132.075134 
	C390.314026,146.666687 383.162720,163.169708 377.599609,180.615372 
	C369.316711,206.590195 370.922302,233.186981 370.740784,259.731628 
	C370.694061,266.561798 370.897583,273.395203 370.759338,280.222565 
	C370.684845,283.899536 372.156250,285.249969 375.798004,285.182617 
	C383.791809,285.034698 391.794067,285.311096 399.786224,285.125946 
	C403.950867,285.029449 406.888397,287.101318 407.805267,290.536133 
	C408.515900,293.198334 408.183441,297.060272 406.669464,299.252838 
	C391.113007,321.781647 375.233826,344.087830 359.412140,366.433075 
	C355.862579,371.446136 352.292145,376.451172 348.539246,381.311554 
	C344.739594,386.232513 338.253052,386.184235 334.421234,381.337158 
	C332.463287,378.860382 330.648438,376.270447 328.574768,373.428406 
M487.812958,67.997795 
	C496.558350,65.887680 505.303741,63.777576 514.347961,61.595367 
	C506.149841,59.005211 498.479950,63.040287 490.512177,61.558285 
	C486.627625,60.835754 482.189026,63.091972 477.492798,63.439648 
	C467.244263,64.081032 457.391449,66.178558 448.004181,70.810951 
	C451.142792,74.537262 453.863983,77.767982 456.901184,81.373886 
	C458.117249,80.788963 460.141571,79.743050 462.223022,78.826904 
	C470.472321,75.195999 478.739471,71.605675 487.812958,67.997795 
z"/>
<path fill="#E89E69" opacity="1.000000" stroke="none" 
	d="
M960.792847,375.856140 
	C947.231812,398.884918 930.614014,418.451385 909.309387,434.492676 
	C881.708740,455.274506 851.006653,468.268951 817.564453,475.235626 
	C800.373291,478.816864 782.865662,478.697449 765.408752,476.751923 
	C764.829529,476.687317 764.273743,476.412903 763.543823,475.226379 
	C765.286072,474.614899 766.983093,473.724762 768.777344,473.433350 
	C801.268005,468.156433 831.086731,456.762878 858.005005,437.292633 
	C881.457703,420.329071 899.041321,399.143280 910.002930,372.485596 
	C915.854614,358.254791 919.313599,343.236725 920.077698,327.960449 
	C921.174683,306.028900 920.891418,284.030731 921.427063,262.066650 
	C921.542664,257.324677 920.083923,255.430222 915.193909,255.674103 
	C908.545044,256.005707 901.868652,255.816910 895.204224,255.795456 
	C885.667786,255.764771 882.023010,249.735886 886.906250,241.355774 
	C890.324341,235.489868 894.514343,230.067566 898.445374,224.507782 
	C911.107361,206.598923 923.797363,188.709854 936.506348,170.834290 
	C938.815491,167.586517 941.152100,164.346313 943.672852,161.263535 
	C948.981262,154.771576 954.791870,154.977951 959.534241,161.773880 
	C965.711243,170.625793 971.813293,179.529922 977.963928,188.400253 
	C989.039429,204.372940 1000.146362,220.323807 1011.188171,236.319702 
	C1012.790039,238.640305 1014.287964,241.070541 1015.514465,243.604675 
	C1018.279480,249.317978 1015.151062,254.535599 1008.778809,254.694199 
	C1000.952148,254.888992 993.113770,254.959000 985.289062,254.753983 
	C980.576660,254.630539 978.754150,256.374054 978.799927,261.176819 
	C978.947876,276.669861 979.345642,292.193665 978.594055,307.654449 
	C977.438904,331.417419 972.404358,354.350983 960.792847,375.856140 
M924.000000,273.671875 
	C924.000000,277.619080 924.000000,281.566284 924.000000,285.513458 
	C927.382751,280.869141 929.692078,276.395691 931.798584,271.828705 
	C932.142639,271.082794 931.739807,269.873718 931.429871,268.964752 
	C929.887085,264.441071 928.279053,259.939301 926.657898,255.442825 
	C924.579468,249.678131 915.723877,245.757355 910.445251,248.979431 
	C905.352966,252.087784 900.132141,250.664627 894.960815,250.826004 
	C893.635559,250.867355 892.256226,249.175171 890.957336,248.316147 
	C893.388489,244.078400 896.321594,242.340668 900.443481,243.006241 
	C905.163818,243.768448 909.949158,244.282211 914.575439,245.430862 
	C919.489136,246.650894 922.199890,244.101624 925.295593,240.857056 
	C921.427673,237.738129 917.358459,235.512238 914.840027,232.131256 
	C912.286804,228.703537 911.265808,224.134476 909.192383,219.148132 
	C907.767212,221.791840 907.006104,223.203720 906.244995,224.615585 
	C905.951477,224.214066 905.657898,223.812531 905.364319,223.411011 
	C903.800598,224.211670 901.725952,224.620560 900.760376,225.879852 
	C896.235229,231.781754 891.812866,237.786011 887.760071,244.017960 
	C885.206360,247.944763 888.251709,253.607101 893.097534,253.871323 
	C898.375427,254.159073 903.695740,253.567383 908.998840,253.529221 
	C912.759949,253.502136 916.522888,253.766434 920.285522,253.883942 
	C923.381104,253.980621 924.088989,255.840851 924.028137,258.563354 
	C923.922546,263.290192 923.999573,268.021088 924.000000,273.671875 
M803.242737,467.795624 
	C794.014893,470.098572 784.786987,472.401520 775.559143,474.704468 
	C791.696655,476.768707 807.361633,475.300385 822.693665,471.328857 
	C822.693665,470.522278 822.761536,470.276886 822.683899,470.215363 
	C819.632751,467.799225 814.028870,470.547516 812.372253,465.155273 
	C812.339661,465.049255 811.126099,465.208771 810.510010,465.396790 
	C808.334290,466.060883 806.178833,466.791321 803.242737,467.795624 
z"/>
<path fill="#7BC1AD" opacity="1.000000" stroke="none" 
	d="
M538.253845,235.999146 
	C538.258728,227.169128 538.454651,218.832565 538.188171,210.510788 
	C538.037537,205.806122 540.193237,204.265808 544.448608,204.304306 
	C551.778870,204.370651 559.110657,204.393280 566.440552,204.314957 
	C570.002563,204.276901 571.948425,205.254684 571.965637,209.408569 
	C572.021484,222.880859 572.575195,236.350983 572.640503,249.823380 
	C572.771301,276.813416 572.713562,303.804443 572.715271,330.795044 
	C572.715698,337.254486 572.334595,337.633026 565.954041,337.649902 
	C559.123169,337.667969 552.290833,337.707977 545.461548,337.595734 
	C538.933167,337.488464 538.282837,336.795685 538.260620,330.469849 
	C538.213196,316.974823 538.073303,303.477783 538.260803,289.985596 
	C538.317078,285.934845 537.204834,284.397217 532.953125,284.524933 
	C523.297974,284.814972 513.628113,284.735779 503.966217,284.630402 
	C499.320801,284.579712 494.682831,284.009033 490.035950,283.889374 
	C483.484314,283.720612 482.778717,284.467468 482.776886,290.881500 
	C482.772919,304.709961 482.667603,318.540253 482.877014,332.365692 
	C482.937439,336.354431 481.399414,337.754547 477.650879,337.705444 
	C469.988068,337.605072 462.315582,337.435333 454.662231,337.712311 
	C449.855194,337.886292 448.240021,336.113373 448.268311,331.333527 
	C448.426208,304.677155 448.337708,278.019318 448.343201,251.361984 
	C448.345947,238.033279 448.347443,224.704514 448.393341,211.375916 
	C448.413849,205.423264 449.485718,204.347748 455.332825,204.319489 
	C462.663452,204.284073 469.995880,204.404831 477.324463,204.279404 
	C481.165771,204.213654 482.703064,205.839050 482.685974,209.658676 
	C482.626343,222.986771 482.876465,236.317673 482.687408,249.642944 
	C482.624481,254.076477 484.211884,255.426270 488.511688,255.358032 
	C503.336761,255.122787 518.167297,255.102829 532.994324,255.205185 
	C536.854614,255.231827 538.459900,253.946320 538.262085,249.990967 
	C538.037659,245.504623 538.236450,240.997101 538.253845,235.999146 
z"/>
<path fill="#E89E69" opacity="1.000000" stroke="none" 
	d="
M778.427002,249.427368 
	C791.764954,236.048416 808.094421,233.479767 825.616455,234.729935 
	C837.841492,235.602158 848.534119,240.051041 857.421448,248.509277 
	C871.513306,261.920746 875.116028,278.476562 872.525940,297.261169 
	C869.208435,321.321259 844.222595,337.458313 823.305481,338.655212 
	C805.278076,339.686798 789.456482,335.185608 776.631226,321.788574 
	C761.064026,305.527374 757.681702,280.210968 769.104126,260.876251 
	C771.521301,256.784607 775.121887,253.392059 778.427002,249.427368 
M806.823608,264.149719 
	C804.665955,265.941528 801.883911,267.338715 800.458862,269.593536 
	C794.316589,279.312469 792.850098,289.677124 797.690186,300.451935 
	C804.180054,314.899200 826.136780,317.210571 835.679993,304.586975 
	C840.268433,298.517426 841.439514,291.764435 841.089905,284.370758 
	C840.230896,266.201233 823.968628,256.170990 806.823608,264.149719 
z"/>
<path fill="#7BC0AC" opacity="1.000000" stroke="none" 
	d="
M627.665649,236.183487 
	C631.513550,235.847321 632.883972,237.294312 632.903931,240.775620 
	C633.071167,269.901917 633.353516,299.027527 633.598755,328.153381 
	C633.601562,328.485992 633.590820,328.820618 633.557190,329.151367 
	C632.695740,337.626404 632.695068,337.620819 623.969299,337.626129 
	C617.640076,337.629974 611.310730,337.634827 604.981628,337.670837 
	C601.772156,337.689117 600.185852,336.510773 600.199585,332.934967 
	C600.316467,302.454926 600.319641,271.974304 600.282776,241.493958 
	C600.278137,237.650314 601.943909,236.087173 605.721558,236.144760 
	C612.882019,236.253891 620.045227,236.179810 627.665649,236.183487 
z"/>
<path fill="#ECBB95" opacity="1.000000" stroke="none" 
	d="
M659.747437,207.079742 
	C661.801758,205.580795 663.686829,203.542374 665.603210,203.512573 
	C673.892944,203.383636 682.191223,203.991470 690.487488,204.017593 
	C694.104736,204.028992 695.054077,206.151581 695.500000,208.939728 
	C695.760681,210.568893 695.710876,212.256165 695.711182,213.917313 
	C695.716736,241.734543 695.708374,269.551758 695.702087,297.368988 
	C695.701843,298.368378 695.745850,299.371338 695.679199,300.366577 
	C695.155029,308.189026 695.148315,308.169464 703.268433,308.164154 
	C719.528687,308.153564 735.790588,308.293671 752.048218,308.088837 
	C756.739685,308.029785 759.463257,309.397675 759.372742,314.370819 
	C759.246033,321.327332 759.192261,328.296844 758.619812,335.220490 
	C758.538269,336.206451 755.737183,337.667877 754.160522,337.713135 
	C745.672546,337.956787 737.173706,337.821442 728.678650,337.818970 
	C707.857422,337.812958 687.035767,337.733307 666.215454,337.868927 
	C662.281616,337.894562 659.751892,337.239929 659.877991,332.605621 
	C660.003601,327.990814 659.889099,323.366882 659.785034,318.749115 
	C659.684509,314.289062 659.323914,309.831909 659.316895,305.373138 
	C659.266846,273.558289 659.275635,241.743378 659.283325,209.928482 
	C659.283508,209.107178 659.484924,208.285889 659.747437,207.079742 
M756.008545,332.203705 
	C756.000244,331.133270 755.992004,330.062866 756.001099,328.498260 
	C756.001099,328.498260 755.991333,328.003937 756.014221,327.335693 
	C756.007507,326.890045 756.000732,326.444427 756.011658,325.064514 
	C756.015930,321.899323 755.783081,318.711395 756.084351,315.574738 
	C756.461975,311.641968 754.735352,310.807709 751.163269,310.911560 
	C743.249451,311.141571 735.321838,310.858673 727.404419,311.014679 
	C718.444214,311.191223 709.491150,311.728271 700.531006,311.905701 
	C692.238037,312.069946 692.025024,311.757843 692.025696,303.621399 
	C692.028198,273.136047 691.963257,242.650299 692.135803,212.165894 
	C692.159485,207.980347 690.926758,206.673172 686.781067,206.876862 
	C680.300110,207.195312 673.788269,207.071976 667.296143,206.893555 
	C664.179504,206.807907 662.857300,207.626801 662.866516,211.051910 
	C662.974548,251.032394 662.989319,291.013306 662.894958,330.993805 
	C662.886719,334.492004 664.294373,335.138672 667.354614,335.088745 
	C676.347900,334.942078 685.345947,335.107269 694.340271,334.998291 
	C697.266357,334.962830 700.186768,334.458954 704.023254,334.111145 
	C721.010925,334.417267 737.998596,334.723419 755.507385,334.715057 
	C755.668091,334.145508 755.828796,333.575928 756.008545,332.203705 
z"/>
<path fill="#7FC3AE" opacity="1.000000" stroke="none" 
	d="
M598.217163,203.554169 
	C601.047058,194.098831 607.860779,188.932755 617.129944,189.342422 
	C626.327759,189.748917 633.437256,193.660599 635.982666,203.270950 
	C637.987549,210.840958 633.229736,219.705383 625.478210,222.366272 
	C616.290039,225.520325 607.541809,223.123611 601.006958,216.179260 
	C597.546387,212.501846 598.303589,208.225159 598.217163,203.554169 
z"/>
<path fill="#75BBA7" opacity="1.000000" stroke="none" 
	d="
M487.000000,68.000313 
	C478.739471,71.605675 470.472321,75.195999 462.223022,78.826904 
	C460.141571,79.743050 458.117249,80.788963 456.901184,81.373886 
	C453.863983,77.767982 451.142792,74.537262 448.004181,70.810951 
	C457.391449,66.178558 467.244263,64.081032 477.752747,64.103516 
	C478.199554,67.289848 479.306366,68.184265 481.964630,67.614136 
	C483.542877,67.275642 485.315033,67.841217 487.000000,68.000313 
z"/>
<path fill="#7DBCA9" opacity="1.000000" stroke="none" 
	d="
M487.406494,67.999054 
	C485.315033,67.841217 483.542877,67.275642 481.964630,67.614136 
	C479.306366,68.184265 478.199554,67.289848 478.006958,64.383614 
	C482.189026,63.091972 486.627625,60.835754 490.512177,61.558285 
	C498.479950,63.040287 506.149841,59.005211 514.347961,61.595367 
	C505.303741,63.777576 496.558350,65.887680 487.406494,67.999054 
z"/>
<path fill="#E79962" opacity="1.000000" stroke="none" 
	d="
M924.000000,273.211090 
	C923.999573,268.021088 923.922546,263.290192 924.028137,258.563354 
	C924.088989,255.840851 923.381104,253.980621 920.285522,253.883942 
	C916.522888,253.766434 912.759949,253.502136 908.998840,253.529221 
	C903.695740,253.567383 898.375427,254.159073 893.097534,253.871323 
	C888.251709,253.607101 885.206360,247.944763 887.760071,244.017960 
	C891.812866,237.786011 896.235229,231.781754 900.760376,225.879852 
	C901.725952,224.620560 903.800598,224.211670 905.364319,223.411011 
	C905.657898,223.812531 905.951477,224.214066 906.244995,224.615585 
	C907.006104,223.203720 907.767212,221.791840 909.192383,219.148132 
	C911.265808,224.134476 912.286804,228.703537 914.840027,232.131256 
	C917.358459,235.512238 921.427673,237.738129 925.295593,240.857056 
	C922.199890,244.101624 919.489136,246.650894 914.575439,245.430862 
	C909.949158,244.282211 905.163818,243.768448 900.443481,243.006241 
	C896.321594,242.340668 893.388489,244.078400 890.957336,248.316147 
	C892.256226,249.175171 893.635559,250.867355 894.960815,250.826004 
	C900.132141,250.664627 905.352966,252.087784 910.445251,248.979431 
	C915.723877,245.757355 924.579468,249.678131 926.657898,255.442825 
	C928.279053,259.939301 929.887085,264.441071 931.429871,268.964752 
	C931.739807,269.873718 932.142639,271.082794 931.798584,271.828705 
	C929.692078,276.395691 927.382751,280.869141 924.000000,285.513458 
	C924.000000,281.566284 924.000000,277.619080 924.000000,273.211090 
z"/>
<path fill="#DF945F" opacity="1.000000" stroke="none" 
	d="
M803.629211,467.646118 
	C806.178833,466.791321 808.334290,466.060883 810.510010,465.396790 
	C811.126099,465.208771 812.339661,465.049255 812.372253,465.155273 
	C814.028870,470.547516 819.632751,467.799225 822.683899,470.215363 
	C822.761536,470.276886 822.693665,470.522278 822.693665,471.328857 
	C807.361633,475.300385 791.696655,476.768707 775.559143,474.704468 
	C784.786987,472.401520 794.014893,470.098572 803.629211,467.646118 
z"/>
<path fill="#FCFAF7" opacity="1.000000" stroke="none" 
	d="
M807.159546,263.981720 
	C823.968628,256.170990 840.230896,266.201233 841.089905,284.370758 
	C841.439514,291.764435 840.268433,298.517426 835.679993,304.586975 
	C826.136780,317.210571 804.180054,314.899200 797.690186,300.451935 
	C792.850098,289.677124 794.316589,279.312469 800.458862,269.593536 
	C801.883911,267.338715 804.665955,265.941528 807.159546,263.981720 
z"/>
<path fill="#E79A63" opacity="1.000000" stroke="none" 
	d="
M703.109741,334.169342 
	C700.186768,334.458954 697.266357,334.962830 694.340271,334.998291 
	C685.345947,335.107269 676.347900,334.942078 667.354614,335.088745 
	C664.294373,335.138672 662.886719,334.492004 662.894958,330.993805 
	C662.989319,291.013306 662.974548,251.032394 662.866516,211.051910 
	C662.857300,207.626801 664.179504,206.807907 667.296143,206.893555 
	C673.788269,207.071976 680.300110,207.195312 686.781067,206.876862 
	C690.926758,206.673172 692.159485,207.980347 692.135803,212.165894 
	C691.963257,242.650299 692.028198,273.136047 692.025696,303.621399 
	C692.025024,311.757843 692.238037,312.069946 700.531006,311.905701 
	C709.491150,311.728271 718.444214,311.191223 727.404419,311.014679 
	C735.321838,310.858673 743.249451,311.141571 751.163269,310.911560 
	C754.735352,310.807709 756.461975,311.641968 756.084351,315.574738 
	C755.783081,318.711395 756.015930,321.899323 755.563965,325.532471 
	C746.277039,326.000366 737.423950,325.690369 728.602600,326.087311 
	C719.784912,326.484039 710.999146,327.588043 701.741943,328.423279 
	C702.434082,331.330780 702.771912,332.750061 703.109741,334.169342 
z"/>
<path fill="#E89F69" opacity="1.000000" stroke="none" 
	d="
M703.566528,334.140259 
	C702.771912,332.750061 702.434082,331.330780 701.741943,328.423279 
	C710.999146,327.588043 719.784912,326.484039 728.602600,326.087311 
	C737.423950,325.690369 746.277039,326.000366 755.555115,325.999634 
	C756.000732,326.444427 756.007507,326.890045 755.837769,327.756989 
	C755.598450,328.284332 755.457703,328.449432 755.485840,328.486420 
	C755.627625,328.673431 755.813354,328.827087 755.983765,328.992432 
	C755.992004,330.062866 756.000244,331.133270 755.752808,332.774231 
	C755.326843,333.906342 755.156555,334.467957 754.986267,335.029572 
	C737.998596,334.723419 721.010925,334.417267 703.566528,334.140259 
z"/>
<path fill="#E79A63" opacity="1.000000" stroke="none" 
	d="
M755.246826,334.872314 
	C755.156555,334.467957 755.326843,333.906342 755.743286,333.175537 
	C755.828796,333.575928 755.668091,334.145508 755.246826,334.872314 
z"/>
<path fill="#E79A63" opacity="1.000000" stroke="none" 
	d="
M755.992432,328.745361 
	C755.813354,328.827087 755.627625,328.673431 755.485840,328.486420 
	C755.457703,328.449432 755.598450,328.284332 755.826294,328.091125 
	C755.991333,328.003937 756.001099,328.498260 755.992432,328.745361 
z"/>
</svg>